<svg width="484" height="615" viewBox="0 0 484 615" fill="none" xmlns="http://www.w3.org/2000/svg">
<path d="M317.71 450.465H217.453V438.105L214.019 422.998L202.346 406.517L187.925 387.29L176.251 372.869L159.771 350.895L145.35 332.355L132.303 311.754L124.063 291.84L118.57 269.179V245.145L124.063 217.677L132.303 195.703L145.35 171.669L159.771 151.755L176.251 135.275L196.166 118.794L214.019 111.241L240.8 105.06H268.955H292.989L312.903 111.241L332.13 118.794L351.357 129.781L367.838 142.142L380.198 156.562L391.185 171.669L401.486 190.21L409.726 209.437L413.846 232.098V252.699V278.106L409.726 296.647L401.486 317.248L391.185 332.355L374.018 355.016L361.658 372.869L343.804 392.097L335.564 406.517L325.263 418.191L317.71 430.551V450.465Z" fill="#FFD231"/>
<path fill-rule="evenodd" clip-rule="evenodd" d="M236.82 31.0726C234.754 33.1388 234.607 34.7623 234.607 55.4255C234.607 80.8385 234.992 81.9934 243.463 81.9934C251.932 81.9934 252.319 80.8385 252.319 55.4255C252.319 30.0144 251.932 28.8596 243.463 28.8596C240.51 28.8596 238.297 29.596 236.82 31.0726ZM120.493 61.2725C114.005 66.2546 114.769 70.2158 125.964 89.6516C136.358 107.695 139.007 110.417 144.898 109.125C154.911 106.925 154.518 100.005 143.265 80.2899C131.573 59.8089 127.179 56.1397 120.493 61.2725ZM354.925 62.3455C349.922 67.4188 334.862 95.5879 334.849 99.8931C334.829 107.118 341.873 111.537 348.159 108.243C351.692 106.391 370.764 74.164 370.764 70.0447C370.764 61.3766 360.701 56.4856 354.925 62.3455ZM218.002 121.455C114.125 137.329 55.2117 253.806 102.885 349.053C111.47 366.207 128.67 389.043 154.239 417.23C177.038 442.364 181.088 449.984 182.273 469.97C182.877 480.137 183.175 481.27 185.99 484.083L189.05 487.144H242.752C308.83 487.144 303.453 488.714 305.311 468.876C307.223 448.449 310.477 442.411 333.635 416.325C387.168 356.018 399.969 329.348 400.06 277.927C400.231 178.877 315.995 106.48 218.002 121.455ZM265.327 141.225C334.204 152.396 384.033 212.934 381.496 282.355C380.003 323.198 365.968 350.738 321.446 400.188C294.017 430.65 286.742 443.8 286.653 463.069L286.634 467.219H244.143H201.653L200.892 460.854C198.328 439.357 194.257 432.153 168.29 403.128C132.369 362.981 119.266 343.398 111.273 317.927C80.9854 221.401 165.061 124.964 265.327 141.225ZM33.1797 148.921C25.8878 156.683 29.0307 161.325 49.6623 173.272C70.8128 185.52 78.5232 185.455 78.5232 173.026C78.5232 167.032 77.7198 166.305 59.3328 155.684C41.1709 145.194 37.5593 144.26 33.1797 148.921ZM426.875 156.021C408.888 166.592 408.441 167.004 408.417 173.091C408.369 185.298 416.213 185.475 436.545 173.725C456.236 162.35 456 162.562 456 156.181C456 143.159 448.829 143.12 426.875 156.021ZM230.179 156.146C203.821 159.495 181.953 169.695 163.242 187.366C141.298 208.095 129.386 232.409 137.896 239.104C143.76 243.716 150.042 241.326 153.682 233.099C167.949 200.847 200.82 178.609 238.914 175.438C250.148 174.505 252.319 172.926 252.319 165.692C252.319 156.252 247.089 153.998 230.179 156.146ZM181.975 257.398C177.782 261.591 178.529 264.881 188.021 284.016C209.618 327.557 216.848 362.116 216.884 421.962C216.897 444.507 220.676 451.254 230.391 446.08C235.321 443.454 235.641 442.08 235.674 423.494C235.773 367.928 229.199 328.576 213.826 292.682L210.427 284.745L213.711 285.89C222.208 288.851 230.999 286.549 241.964 278.487C242.957 277.756 243.967 277.756 244.96 278.487C255.928 286.55 264.716 288.851 273.222 285.886L276.515 284.739L272.829 293.35C257.708 328.678 251.253 367.771 251.222 424.225L251.21 441.563L254.733 444.525C259.008 448.122 263.726 447.693 267.539 443.359C269.9 440.674 270.031 439.603 270.047 422.601C270.105 361.982 277.248 327.676 298.905 284.016C308.395 264.881 309.142 261.591 304.949 257.398C300.723 253.172 295.801 253.79 282.104 260.263C264.985 268.355 264.405 268.368 255.259 260.872C249.005 255.744 246.978 254.681 243.463 254.681C239.946 254.681 237.919 255.744 231.665 260.872C222.519 268.368 221.939 268.355 204.82 260.263C191.125 253.79 186.2 253.172 181.975 257.398ZM128.84 266.254C122.626 272.469 128.873 313.905 137.392 322.971C140.73 326.525 147 326.462 150.401 322.839C153.553 319.484 153.245 314.811 148.928 300.621C147.022 294.357 145.653 286.757 145.24 280.155C144.29 264.937 136.641 258.454 128.84 266.254ZM188.454 505.957C182.28 508.486 180.802 518.605 185.988 522.845C189.646 525.834 297.279 525.823 300.973 522.832C304.835 519.704 305.242 512.665 301.793 508.654L299.003 505.411L244.943 505.187C214.983 505.065 189.799 505.407 188.454 505.957ZM197.673 542.573C193.429 545.911 193.429 554.574 197.673 557.91C200.509 560.142 201.764 560.205 243.463 560.205C293.361 560.205 292.169 560.449 292.169 550.243C292.169 540.036 293.361 540.28 243.463 540.28C201.764 540.28 200.509 540.341 197.673 542.573ZM208.232 578.265C204.855 581.858 204.933 588.871 208.387 592.114C212.411 595.895 275.318 595.88 278.842 592.099C282.085 588.618 281.925 581.292 278.537 578.108C276.026 575.75 275.325 575.702 243.307 575.702H210.639L208.232 578.265Z" fill="white"/>
<line x1="243.234" y1="33.9276" x2="242.547" y2="77.2105" stroke="#FFD231" stroke-width="21" stroke-linecap="round"/>
<line x1="365.415" y1="62.5179" x2="343.504" y2="99.8512" stroke="#FFD231" stroke-width="21" stroke-linecap="round"/>
<line x1="122.674" y1="63.3465" x2="144.378" y2="100.801" stroke="#FFD231" stroke-width="21" stroke-linecap="round"/>
<line x1="446.601" y1="154.439" x2="415.042" y2="174.071" stroke="#FFD231" stroke-width="23" stroke-linecap="round"/>
<line x1="38.2942" y1="157.156" x2="68.3667" y2="172.863" stroke="#FFD231" stroke-width="23" stroke-linecap="round"/>
</svg>
