<svg width="484" height="615" viewBox="0 0 484 615" fill="none" xmlns="http://www.w3.org/2000/svg">
<g id="bulb-svg-unlit">
<path id="Vector 4" d="M319.824 449.984H219.567V437.623L216.134 422.516L204.46 406.036L190.039 386.808L178.366 372.388L161.885 350.414L147.465 331.873L134.418 311.272L126.177 291.358L120.684 268.698V244.663L126.177 217.196L134.418 195.222L147.465 171.188L161.885 151.274L178.366 134.793L198.28 118.312L216.134 110.759L242.915 104.579H271.069H295.103L315.017 110.759L334.244 118.312L353.472 129.3L369.952 141.66L382.313 156.08L393.3 171.188L403.6 189.728L411.84 208.956L415.96 231.616V252.217V277.625L411.84 296.165L403.6 316.766L393.3 331.873L376.132 354.534L363.772 372.388L345.918 391.615L337.678 406.036L327.377 417.709L319.824 430.07V449.984Z" fill="#535353"/>
<g id="svg-bulb">
<path id="path0" fill-rule="evenodd" clip-rule="evenodd" d="M218.002 121.455C114.125 137.329 55.2117 253.807 102.885 349.053C111.47 366.207 128.67 389.043 154.239 417.231C177.038 442.365 181.088 449.984 182.273 469.97C182.877 480.137 183.175 481.27 185.99 484.083L189.05 487.144H242.752C308.83 487.144 303.453 488.714 305.311 468.877C307.223 448.449 310.477 442.411 333.635 416.325C387.168 356.018 399.969 329.348 400.06 277.927C400.231 178.877 315.995 106.48 218.002 121.455ZM265.327 141.225C334.204 152.396 384.033 212.934 381.496 282.355C380.003 323.198 365.968 350.738 321.446 400.188C294.017 430.65 286.742 443.8 286.653 463.069L286.634 467.22H244.143H201.653L200.892 460.854C198.328 439.357 194.257 432.153 168.29 403.128C132.369 362.981 119.266 343.398 111.273 317.928C80.9854 221.401 165.061 124.964 265.327 141.225ZM230.179 156.146C203.821 159.495 181.953 169.695 163.242 187.366C141.298 208.095 129.386 232.409 137.896 239.104C143.76 243.716 150.042 241.326 153.682 233.099C167.949 200.848 200.82 178.609 238.914 175.438C250.148 174.505 252.319 172.926 252.319 165.692C252.319 156.252 247.089 153.998 230.179 156.146ZM181.975 257.398C177.782 261.591 178.529 264.881 188.021 284.016C209.618 327.557 216.848 362.116 216.884 421.962C216.897 444.507 220.676 451.254 230.391 446.08C235.321 443.454 235.641 442.08 235.674 423.494C235.773 367.928 229.199 328.576 213.826 292.682L210.427 284.745L213.711 285.89C222.208 288.851 230.999 286.549 241.964 278.487C242.957 277.756 243.967 277.756 244.96 278.487C255.928 286.55 264.716 288.851 273.222 285.886L276.515 284.739L272.829 293.35C257.708 328.678 251.253 367.771 251.222 424.225L251.21 441.563L254.733 444.526C259.008 448.122 263.726 447.693 267.539 443.359C269.9 440.674 270.031 439.603 270.047 422.601C270.105 361.982 277.248 327.676 298.905 284.016C308.395 264.881 309.142 261.591 304.949 257.398C300.723 253.172 295.801 253.79 282.104 260.263C264.985 268.355 264.405 268.368 255.259 260.872C249.005 255.744 246.978 254.681 243.463 254.681C239.946 254.681 237.919 255.744 231.665 260.872C222.519 268.368 221.939 268.355 204.82 260.263C191.125 253.79 186.2 253.172 181.975 257.398ZM128.84 266.254C122.626 272.469 128.873 313.905 137.392 322.971C140.73 326.525 147 326.462 150.401 322.839C153.553 319.484 153.245 314.811 148.928 300.621C147.022 294.358 145.653 286.757 145.24 280.155C144.29 264.937 136.641 258.454 128.84 266.254ZM188.454 505.957C182.28 508.487 180.802 518.605 185.988 522.845C189.646 525.834 297.279 525.823 300.973 522.832C304.835 519.704 305.242 512.665 301.793 508.654L299.003 505.411L244.943 505.187C214.983 505.065 189.799 505.407 188.454 505.957ZM197.673 542.573C193.429 545.911 193.429 554.574 197.673 557.91C200.509 560.142 201.764 560.205 243.463 560.205C293.361 560.205 292.169 560.449 292.169 550.243C292.169 540.036 293.361 540.28 243.463 540.28C201.764 540.28 200.509 540.341 197.673 542.573ZM208.232 578.265C204.855 581.858 204.933 588.871 208.387 592.114C212.411 595.895 275.318 595.88 278.842 592.099C282.085 588.618 281.925 581.292 278.537 578.108C276.026 575.75 275.325 575.702 243.307 575.702H210.639L208.232 578.265Z" fill="black"/>
</g>
</g>
</svg>
