<svg width="274" height="681" viewBox="0 0 274 681" fill="none" xmlns="http://www.w3.org/2000/svg">
<g id="candle 1">
<g id="layer1">
<g id="g3839">
<path id="path3831" d="M225.493 235.431C212.915 247.535 207.214 259.53 170.628 263.021C167.093 263.358 119.339 267.556 85.703 251.307L85.502 258.456C85.3519 255.639 85.2114 252.804 85.0426 249.986L74.5346 646.356C74.6562 645.992 74.7627 645.608 74.8792 645.237L74.8505 646.356C87.5605 663.418 108.981 666.952 123.743 667.372C181.155 669.005 185.931 651.589 208.409 654.223C208.409 516.823 213.073 371.703 225.492 235.433L225.493 235.431Z" fill="url(#paint0_linear_1_2)" stroke="#888888" stroke-width="7.3498" stroke-linecap="round" stroke-linejoin="round"/>
<path id="path3835" d="M85.033 250.001C107.813 228.962 201.583 227.603 221.533 234.251C212.212 271.536 117.773 270.023 85.033 250.001Z" fill="url(#paint1_radial_1_2)" stroke="#888888" stroke-width="7.3498" stroke-linecap="round" stroke-linejoin="round"/>
<g id="flame1">
<path id="path3837" d="M143.145 227.997C57.5141 216.665 126.715 2.69094 158.617 34.5933C163.576 39.5514 155.356 59.0145 158.617 65.5365C190.286 128.873 230.701 222.013 154.75 247.328C150.882 240.882 147.014 234.435 143.146 227.988L143.145 227.997Z" fill="#F8C71C" stroke="#EAEAEA" stroke-width="7.3498" stroke-linecap="round" stroke-linejoin="round"/>
<path id="path3845" d="M145.665 214.337C105.567 209.031 137.971 108.837 152.91 123.776C155.231 126.097 151.383 135.211 152.91 138.265C167.738 167.924 186.664 211.538 151.098 223.394C149.287 220.375 147.476 217.357 145.665 214.338L145.665 214.337Z" fill="#C10000"/>
</g>
<g id="flame2">
<path id="path3837_2" d="M148.433 224.198C68.653 191.09 190.877 2.31703 213.435 41.3893C216.941 47.4617 203.964 64.1343 205.426 71.2781C219.623 140.652 234.554 241.079 154.639 245.875C152.571 238.647 150.504 231.418 148.436 224.19L148.433 224.198Z" fill="#F9DC76" stroke="#EAEAEA" stroke-width="7.3498" stroke-linecap="round" stroke-linejoin="round"/>
<path id="path3845_2" d="M154.403 211.656C117.044 196.152 174.276 107.759 184.84 126.056C186.481 128.899 180.405 136.706 181.089 140.052C187.736 172.537 194.73 219.564 157.307 221.811C156.339 218.426 155.371 215.042 154.402 211.657L154.403 211.656Z" fill="#BE6767"/>
</g>
<path id="path3859" d="M98.673 273.301C98.673 277.941 80.1119 634.311 85.6799 638.021C91.2482 641.733 94.0325 662.15 98.673 650.086C103.313 638.021 113.522 295.566 113.522 287.216C113.522 278.864 113.522 267.727 106.098 267.727C98.6731 267.727 98.6732 273.295 98.6732 273.295L98.673 273.301Z" fill="black" fill-opacity="0.24537"/>
<path id="path3859_2" d="M122.151 281.087C122.151 285.548 103.59 628.207 109.158 631.774C114.726 635.343 117.511 654.974 122.151 643.375C126.791 631.774 137 302.495 137 294.466C137 286.435 137 275.727 129.576 275.727C122.151 275.727 122.151 281.081 122.151 281.081L122.151 281.087Z" fill="black" fill-opacity="0.07"/>
<path id="path3859_3" d="M145.629 289.07C145.629 293.518 127.068 635.121 132.636 638.677C138.204 642.236 140.989 661.806 145.629 650.242C150.269 638.677 160.478 310.412 160.478 302.408C160.478 294.402 160.478 283.727 153.054 283.727C145.629 283.727 145.629 289.065 145.629 289.065L145.629 289.07Z" fill="black" fill-opacity="0.07"/>
<path id="path3859_4" d="M169.107 296.783C169.107 300.993 150.546 624.27 156.114 627.635C161.682 631.002 164.467 649.523 169.107 638.58C173.747 627.635 183.956 316.981 183.956 309.406C183.956 301.829 183.956 291.727 176.532 291.727C169.107 291.727 169.107 296.778 169.107 296.778L169.107 296.783Z" fill="black" fill-opacity="0.07"/>
<path id="path3859_5" d="M192.585 304.668C192.585 308.781 174.024 624.674 179.592 627.963C185.16 631.254 187.945 649.351 192.585 638.658C197.225 627.963 207.434 324.404 207.434 317.002C207.434 309.599 207.434 299.727 200.01 299.727C192.585 299.727 192.585 304.663 192.585 304.663L192.585 304.668Z" fill="black" fill-opacity="0.07"/>
</g>
</g>
</g>
<defs>
<linearGradient id="paint0_linear_1_2" x1="132.288" y1="423.245" x2="268.782" y2="417.99" gradientUnits="userSpaceOnUse">
<stop stop-color="#F2EBDE"/>
<stop offset="1" stop-color="#FEF9EF"/>
</linearGradient>
<radialGradient id="paint1_radial_1_2" cx="0" cy="0" r="1" gradientUnits="userSpaceOnUse" gradientTransform="translate(157.137 251.024) rotate(-0.138701) scale(76.1357 31.421)">
<stop stop-color="#8F753B"/>
<stop offset="1" stop-color="#FFFF99"/>
</radialGradient>
</defs>
</svg>
