<svg width="468" height="261" viewBox="0 0 468 261" fill="none" xmlns="http://www.w3.org/2000/svg">
<path d="M22.1294 140.915C22.1294 163.673 22.1294 186.43 22.1294 209.188C22.1294 211.589 22.0587 195.146 22.1294 193.703C23.0871 174.166 30.1797 155.561 35.8544 137.044C41.566 118.406 43.9846 97.9513 53.0987 80.7358C59.043 69.5077 40.1846 102.662 34.7986 114.169C27.2352 130.327 17.9753 147.86 15.9707 165.901C15.087 173.854 19.7255 165.778 21.4255 163.262C30.077 150.458 38.8964 137.759 47.4679 124.902C50.5328 120.305 76.547 70.6568 75.4459 93.2291C73.7863 127.251 60.8379 162.596 51.3391 195.111C50.3947 198.344 47.1969 223.553 47.4679 209.188C47.8776 187.475 54.8859 168.658 62.6006 148.657C66.7636 137.864 71.1896 126.97 66.4718 145.842C63.2143 158.872 56.9699 173.133 56.9699 186.665C56.9699 219.194 73.083 117.767 99.5527 98.8599C103.628 95.9492 101.33 108.823 100.96 113.817C99.5831 132.41 95.467 150.619 91.9863 168.893C87.3492 193.237 80.0616 219.878 79.1411 244.732C79.0372 247.537 89.4801 221.327 91.8103 216.227C106.517 184.037 119.637 151.088 132.282 118.04C132.987 116.195 145.391 80.7587 145.655 92.3493C146.272 119.495 144.804 146.071 140.904 172.94C138.226 191.387 137.173 209.964 133.161 228.016C132.553 230.755 143.334 206.566 146.183 201.622C165.82 167.544 182.632 131.941 202.139 97.8041C207.203 88.9404 218.769 66.9219 211.465 91.6454C201.796 124.369 188.875 154.758 183.663 188.776C182.02 199.495 180.495 231.997 180.495 221.153C180.495 190.843 189.953 163.674 200.907 135.636C202.403 131.805 229.265 51.2577 235.747 53.1097C240.022 54.331 218.423 125.772 217.095 131.589C209.609 164.386 205.834 197.749 205.834 231.359C205.834 246.251 214.622 216.137 216.743 212.355C234.577 180.565 251.144 148.833 267.42 116.28C275.937 99.2468 263.791 132.375 262.845 135.108C253.83 161.152 247.394 187.746 240.85 214.467C237.09 229.823 236.858 236.484 237.683 215.875C238.526 194.789 244.924 175.947 252.112 156.223C264.709 121.654 275.904 86.5211 289.24 52.2299C289.86 50.6349 310.406 -0.845566 306.484 21.2606C300.355 55.8036 283.573 88.3541 276.922 123.319C272.282 147.715 271.758 172.458 272.347 197.223C272.885 219.801 290.362 155.602 302.437 136.516C310.851 123.217 319.84 103.276 330.943 92.1733C333.974 89.142 324.413 139.327 323.2 145.314C319.097 165.577 316.69 184.884 316.69 205.493C316.69 205.711 318.39 165.208 319.857 154.288C320.626 148.565 327.285 97.1835 334.99 96.2204C340.56 95.5241 333.184 107.315 331.823 112.761C328.378 126.538 326.781 140.18 325.488 154.288C323.185 179.412 320.258 204.537 317.394 229.6C315.866 242.963 315.385 254.59 323.376 235.054C343.652 185.491 360.492 133.137 386.195 86.0146C397.696 64.9287 380.417 133.791 380.036 157.807C379.971 161.906 379.801 183.047 380.036 166.605C380.415 140.052 386.123 114.117 392.705 88.4781C393.403 85.7606 399.334 62.1797 399.04 75.105C398.514 98.2684 390.818 120.732 389.714 143.906C388.987 159.168 389.538 174.552 389.538 189.832C389.538 205.025 396.093 190.808 399.568 184.553C412.631 161.04 427.743 136.702 443.206 114.696C451.332 103.133 454.557 95.5965 452.181 113.817C449.805 132.027 445.06 149.752 442.679 168.013C442.012 173.125 440.215 192.675 440.215 176.459C440.215 142.44 440.215 40.3818 440.215 74.4011" stroke="#F1F1F1" stroke-width="30" stroke-linecap="round"/>
</svg>
