<svg width="1253" height="537" viewBox="0 0 1253 537" fill="none" xmlns="http://www.w3.org/2000/svg">
<mask id="path-1-inside-1_2_25" fill="white">
<path fill-rule="evenodd" clip-rule="evenodd" d="M0 99.9706C54.733 99.9706 99.1029 55.6008 99.1029 0.867737H1153.32C1153.32 55.6008 1197.69 99.9706 1252.42 99.9706V437.392C1197.69 437.392 1153.32 481.762 1153.32 536.495H99.1029C99.1029 481.762 54.733 437.392 0 437.392V99.9706Z"/>
</mask>
<path fill-rule="evenodd" clip-rule="evenodd" d="M0 99.9706C54.733 99.9706 99.1029 55.6008 99.1029 0.867737H1153.32C1153.32 55.6008 1197.69 99.9706 1252.42 99.9706V437.392C1197.69 437.392 1153.32 481.762 1153.32 536.495H99.1029C99.1029 481.762 54.733 437.392 0 437.392V99.9706Z" fill="#D19908"/>
<path d="M99.1029 0.867737V-13.1323H85.1029V0.867737H99.1029ZM0 99.9706V85.9706H-14V99.9706H0ZM1153.32 0.867737H1167.32V-13.1323H1153.32V0.867737ZM1252.42 99.9706H1266.42V85.9706H1252.42V99.9706ZM1252.42 437.392V451.392H1266.42V437.392H1252.42ZM1153.32 536.495V550.495H1167.32V536.495H1153.32ZM99.1029 536.495H85.1029V550.495H99.1029V536.495ZM0 437.392H-14V451.392H0V437.392ZM85.1029 0.867737C85.1029 47.8688 47.001 85.9706 0 85.9706V113.971C62.465 113.971 113.103 63.3327 113.103 0.867737H85.1029ZM99.1029 14.8677H1153.32V-13.1323H99.1029V14.8677ZM1139.32 0.867737C1139.32 63.3327 1189.95 113.971 1252.42 113.971V85.9706C1205.42 85.9706 1167.32 47.8688 1167.32 0.867737H1139.32ZM1238.42 99.9706V437.392H1266.42V99.9706H1238.42ZM1252.42 423.392C1189.95 423.392 1139.32 474.03 1139.32 536.495H1167.32C1167.32 489.494 1205.42 451.392 1252.42 451.392V423.392ZM1153.32 522.495H99.1029V550.495H1153.32V522.495ZM113.103 536.495C113.103 474.03 62.465 423.392 0 423.392V451.392C47.001 451.392 85.1029 489.494 85.1029 536.495H113.103ZM14 437.392V99.9706H-14V437.392H14Z" fill="#E4B53A" mask="url(#path-1-inside-1_2_25)"/>
<mask id="path-3-inside-2_2_25" fill="white">
<path fill-rule="evenodd" clip-rule="evenodd" d="M20.7116 111.862C73.7145 111.862 116.682 70.6196 116.682 19.7444H1137.57C1137.57 70.6196 1180.54 111.862 1233.54 111.862V425.501C1180.54 425.501 1137.57 466.743 1137.57 517.619H116.682C116.682 466.743 73.7145 425.501 20.7116 425.501V111.862Z"/>
</mask>
<path fill-rule="evenodd" clip-rule="evenodd" d="M20.7116 111.862C73.7145 111.862 116.682 70.6196 116.682 19.7444H1137.57C1137.57 70.6196 1180.54 111.862 1233.54 111.862V425.501C1180.54 425.501 1137.57 466.743 1137.57 517.619H116.682C116.682 466.743 73.7145 425.501 20.7116 425.501V111.862Z" fill="#FFCD1A"/>
<path d="M116.682 19.7444V4.74445H101.682V19.7444H116.682ZM20.7116 111.862V96.8621H5.71164V111.862H20.7116ZM1137.57 19.7444H1152.57V4.74445H1137.57V19.7444ZM1233.54 111.862H1248.54V96.8621H1233.54V111.862ZM1233.54 425.501V440.501H1248.54V425.501H1233.54ZM1137.57 517.619V532.619H1152.57V517.619H1137.57ZM116.682 517.619H101.682V532.619H116.682V517.619ZM20.7116 425.501H5.71164V440.501H20.7116V425.501ZM101.682 19.7444C101.682 61.7621 66.0155 96.8621 20.7116 96.8621V126.862C81.4137 126.862 131.682 79.4772 131.682 19.7444H101.682ZM1137.57 4.74445H116.682V34.7444H1137.57V4.74445ZM1233.54 96.8621C1188.24 96.8621 1152.57 61.7621 1152.57 19.7444H1122.57C1122.57 79.4772 1172.84 126.862 1233.54 126.862V96.8621ZM1248.54 425.501V111.862H1218.54V425.501H1248.54ZM1152.57 517.619C1152.57 475.601 1188.24 440.501 1233.54 440.501V410.501C1172.84 410.501 1122.57 457.886 1122.57 517.619H1152.57ZM116.682 532.619H1137.57V502.619H116.682V532.619ZM20.7116 440.501C66.0155 440.501 101.682 475.601 101.682 517.619H131.682C131.682 457.886 81.4137 410.501 20.7116 410.501V440.501ZM5.71164 111.862V425.501H35.7116V111.862H5.71164Z" fill="black" mask="url(#path-3-inside-2_2_25)"/>
</svg>
