<svg width="21" height="16" viewBox="0 0 21 16" fill="none" xmlns="http://www.w3.org/2000/svg">
<path fill-rule="evenodd" clip-rule="evenodd" d="M7.18213 15.9999C14.7291 15.9999 18.8571 9.84348 18.8571 4.50529C18.8571 4.33004 18.8571 4.15611 18.8451 3.98283C19.6481 3.41179 20.3411 2.70278 20.8921 1.89152C20.1441 2.21839 19.3491 2.43275 18.5361 2.52726C19.3921 2.02219 20.0331 1.2287 20.3401 0.292397C19.5341 0.763007 18.6531 1.09514 17.7341 1.27335C16.1801 -0.353116 13.5811 -0.431919 11.9281 1.09806C10.8631 2.08457 10.4101 3.55544 10.7411 4.95841C7.44213 4.79498 4.36813 3.26109 2.28413 0.73771C1.19513 2.58372 1.75213 4.94441 3.55513 6.1298C2.90213 6.11109 2.26313 5.938 1.69213 5.62492V5.67619C1.69313 7.59901 3.07013 9.25465 4.98413 9.63566C4.38013 9.79811 3.74613 9.82167 3.13213 9.70451C3.66913 11.3507 5.21013 12.4782 6.96513 12.5107C5.51213 13.635 3.71713 14.2455 1.86913 14.2436C1.54313 14.2426 1.21713 14.2239 0.892128 14.1855C2.76913 15.3709 4.95213 15.9999 7.18213 15.997" fill="white"/>
</svg>
